<svg width="20" height="20" viewBox="0 0 20 20" fill="none" xmlns="http://www.w3.org/2000/svg">
<path d="M12.5001 13.3333H17.9501C17.6609 14.0942 17.2167 14.7942 16.6242 15.3867L13.7209 18.2917C13.1276 18.8842 12.4276 19.3283 11.6667 19.6167V14.1667C11.6667 13.7075 12.0401 13.3333 12.5001 13.3333ZM18.3334 4.16667V11.2625C18.3334 11.3983 18.3226 11.5325 18.3134 11.6667H12.5001C11.1217 11.6667 10.0001 12.7883 10.0001 14.1667V19.98C9.86591 19.9892 9.73175 20 9.59591 20H5.83341C3.53591 20 1.66675 18.1308 1.66675 15.8333V4.16667C1.66675 1.86917 3.53591 0 5.83341 0H14.1667C16.4642 0 18.3334 1.86917 18.3334 4.16667ZM5.43925 7.08333V4.58333C5.43925 4.17 5.77591 3.83333 6.18925 3.83333C6.52925 3.83333 6.81675 4.06 6.90841 4.37083C6.92841 4.43833 6.93091 5 7.60258 5C8.27425 5 8.28175 4.4175 8.27258 4.33667C8.15091 3.3025 7.25675 2.5 6.18925 2.5C5.03841 2.5 4.10591 3.4325 4.10591 4.58333V7.08333C4.10591 8.23417 5.03841 9.16667 6.18925 9.16667C7.25425 9.16667 8.14758 8.36833 8.27258 7.33667C8.28258 7.25333 8.24591 6.66667 7.60675 6.66667C6.96758 6.66667 6.92925 7.22417 6.91091 7.28917C6.82091 7.6025 6.53175 7.83333 6.18925 7.83333C5.77591 7.83333 5.43925 7.49667 5.43925 7.08333ZM13.3201 3.51167C13.4034 3.09917 13.0876 2.71333 12.6667 2.71333C12.3492 2.71333 12.0759 2.93667 12.0134 3.24833L11.1359 7.6C11.1234 7.665 11.1051 7.7175 11.0884 7.75667C11.0726 7.7225 11.0567 7.67833 11.0467 7.62417L10.1534 3.24667C10.0901 2.93667 9.81675 2.71333 9.50008 2.71333C9.07841 2.71333 8.76258 3.1 8.84675 3.51333L9.74008 7.89083C9.83008 8.35833 10.0917 8.76083 10.4567 8.985C10.6542 9.10583 10.8701 9.16667 11.0884 9.16667C11.2759 9.16667 11.4651 9.12167 11.6442 9.03167C12.0401 8.83333 12.3401 8.39333 12.4451 7.855L13.3209 3.5125L13.3201 3.51167Z" fill="#FADFA8"/>
</svg>
