<svg width="20" height="20" viewBox="0 0 20 20" fill="none" xmlns="http://www.w3.org/2000/svg">
<path d="M16.3378 16.3379H13.6705V12.1608C13.6705 11.1647 13.6527 9.88292 12.2831 9.88292C10.894 9.88292 10.6811 10.9678 10.6811 12.089V16.3379H8.0147V7.74782H10.5756V8.92137H10.6111C11.1335 8.02901 12.1039 7.4959 13.1373 7.53404C15.841 7.53404 16.3387 9.31256 16.3387 11.6251L16.3378 16.3379ZM5.00498 6.57338C4.14987 6.57338 3.4571 5.88061 3.4571 5.0255C3.4571 4.1704 4.14987 3.47762 5.00498 3.47762C5.86008 3.47762 6.55286 4.1704 6.55286 5.0255C6.55286 5.88061 5.86008 6.57338 5.00498 6.57338ZM6.3382 16.3379H3.66821V7.74782H6.3382V16.3379ZM17.6674 1.00101H2.3279C1.60319 0.993025 1.00887 1.57403 1 2.29875V17.7013C1.00887 18.4269 1.60319 19.0079 2.3279 18.9999H17.6674C18.3939 19.0088 18.9909 18.4278 19.0007 17.7013V2.29786C18.99 1.57137 18.393 0.990364 17.6674 1.00012" fill="#FADFA8"/>
</svg>
